<?xml version="1.0" standalone="no"?>
<!DOCTYPE svg PUBLIC "-//W3C//DTD SVG 20010904//EN"
 "http://www.w3.org/TR/2001/REC-SVG-20010904/DTD/svg10.dtd">
<svg version="1.0" xmlns="http://www.w3.org/2000/svg"
 width="512.000000pt" height="512.000000pt" viewBox="0 0 512.000000 512.000000"
 preserveAspectRatio="xMidYMid meet">
<metadata>
Created by potrace 1.16, written by Peter Selinger 2001-2019
</metadata>
<g transform="translate(0.000000,512.000000) scale(0.100000,-0.100000)"
fill="#000000" stroke="none">
<path d="M1146 4879 c-225 -33 -438 -141 -601 -304 -135 -135 -230 -301 -283
-493 l-27 -97 0 -1420 0 -1420 22 -87 c29 -112 62 -193 120 -293 56 -97 101
-155 121 -155 12 0 927 260 972 276 9 3 -12 17 -54 35 -247 106 -455 339 -539
604 -47 149 -48 185 -45 1085 3 832 4 846 25 922 98 346 336 600 658 701 152
48 174 48 1090 45 l860 -3 85 -24 c356 -98 616 -362 713 -725 22 -80 22 -89
22 -957 0 -580 3 -875 10 -873 6 2 138 40 294 84 224 64 286 78 293 68 4 -7 7
471 5 1062 l-2 1075 -28 100 c-104 381 -390 667 -775 773 l-97 27 -1390 1
c-765 1 -1417 -2 -1449 -7z"/>
<path d="M1795 3960 c-66 -3 -140 -12 -165 -19 -170 -48 -331 -183 -409 -343
-74 -151 -71 -106 -71 -1034 0 -794 1 -834 20 -908 30 -119 82 -209 175 -301
92 -93 182 -145 301 -175 70 -18 112 -20 429 -20 l352 0 748 214 c411 118 751
220 756 228 5 7 15 43 24 80 22 100 23 1684 0 1773 -60 236 -251 429 -487 492
-56 15 -146 17 -808 18 -410 1 -799 -1 -865 -5z m1760 -279 c205 -93 137 -404
-88 -404 -221 0 -292 299 -94 398 61 30 125 32 182 6z m-849 -242 c431 -76
744 -446 744 -880 0 -385 -249 -727 -616 -847 -101 -33 -204 -45 -327 -39
-128 6 -213 28 -334 86 -487 234 -653 853 -350 1301 45 66 164 187 227 230
109 74 243 129 367 150 71 12 221 12 289 -1z"/>
<path d="M2480 3130 c-190 -29 -353 -148 -434 -314 -43 -89 -59 -160 -59 -256
0 -253 154 -463 400 -546 70 -23 88 -26 193 -22 141 6 222 33 325 111 279 209
307 616 60 862 -128 128 -314 191 -485 165z"/>
</g>
</svg>
