<?xml version="1.0" standalone="no"?>
<!DOCTYPE svg PUBLIC "-//W3C//DTD SVG 20010904//EN"
 "http://www.w3.org/TR/2001/REC-SVG-20010904/DTD/svg10.dtd">
<svg version="1.0" xmlns="http://www.w3.org/2000/svg"
 width="512.000000pt" height="512.000000pt" viewBox="0 0 512.000000 512.000000"
 preserveAspectRatio="xMidYMid meet">
<metadata>
Created by potrace 1.16, written by Peter Selinger 2001-2019
</metadata>
<g transform="translate(0.000000,512.000000) scale(0.100000,-0.100000)"
fill="#000000" stroke="none">
<path d="M1040 4853 c-249 -43 -473 -187 -619 -398 -67 -96 -107 -186 -137
-304 l-24 -94 0 -1497 0 -1497 24 -94 c39 -154 92 -256 192 -376 139 -166 319
-275 526 -317 68 -14 245 -16 1558 -16 1631 0 1544 -3 1714 62 134 52 296 175
399 303 44 55 98 151 127 226 64 165 61 81 58 1744 l-3 1510 -23 73 c-51 166
-128 295 -244 410 -121 119 -244 193 -409 244 l-74 23 -1520 1 c-836 1 -1531
0 -1545 -3z m1231 -1273 c260 -324 476 -586 480 -582 3 4 207 259 454 567 246
308 457 570 469 583 21 22 27 22 179 20 l157 -3 -550 -685 c-302 -377 -550
-687 -550 -690 0 -3 318 -402 706 -885 388 -484 719 -897 736 -917 l30 -38
-530 0 -530 0 -473 590 c-260 324 -476 586 -480 582 -3 -4 -214 -267 -469
-586 -255 -318 -469 -580 -475 -582 -6 -3 -79 -3 -163 -2 l-152 3 550 685
c302 377 550 687 550 690 0 5 -1272 1594 -1438 1798 l-34 42 530 0 530 0 473
-590z"/>
<path d="M1272 3912 c2 -4 491 -616 1088 -1360 l1085 -1352 203 0 c112 0 202
4 200 8 -1 5 -491 617 -1088 1360 l-1085 1352 -203 0 c-112 0 -202 -4 -200 -8z"/>
</g>
</svg>
